<?xml version="1.0" encoding="UTF-8" standalone="no"?>
<!-- Created with Inkscape (http://www.inkscape.org/) -->

<svg
   version="1.1"
   id="svg48"
   width="5120"
   height="5120"
   viewBox="0 0 5120 5120"
   sodipodi:docname="logo.svg"
   inkscape:version="1.2.2 (b0a8486541, 2022-12-01)"
   xmlns:inkscape="http://www.inkscape.org/namespaces/inkscape"
   xmlns:sodipodi="http://sodipodi.sourceforge.net/DTD/sodipodi-0.dtd"
   xmlns="http://www.w3.org/2000/svg"
   xmlns:svg="http://www.w3.org/2000/svg">
  <defs
     id="defs52" />
  <sodipodi:namedview
     id="namedview50"
     pagecolor="#ffffff"
     bordercolor="#000000"
     borderopacity="0.25"
     inkscape:showpageshadow="2"
     inkscape:pageopacity="0.0"
     inkscape:pagecheckerboard="0"
     inkscape:deskcolor="#d1d1d1"
     showgrid="false"
     inkscape:zoom="0.15625"
     inkscape:cx="1404.8"
     inkscape:cy="2582.4"
     inkscape:window-width="1920"
     inkscape:window-height="995"
     inkscape:window-x="0"
     inkscape:window-y="0"
     inkscape:window-maximized="1"
     inkscape:current-layer="g54" />
  <g
     inkscape:groupmode="layer"
     inkscape:label="Image"
     id="g54">
    <path
       style="fill:#000000"
       d="m 2270.5098,4468.75 c -0.2351,-0.6875 -1.5779,-6.2 -2.9839,-12.25 -1.406,-6.05 -3.2778,-13.925 -4.1594,-17.5 -0.8817,-3.575 -2.1911,-9.9326 -2.9098,-14.128 -0.7187,-4.1955 -2.0048,-9.9787 -2.858,-12.8517 -0.8532,-2.873 -2.0676,-9.1153 -2.6987,-13.8719 -0.6311,-4.7566 -1.5658,-9.7534 -2.0771,-11.104 -0.5114,-1.3506 -1.5496,-6.7506 -2.3071,-12 -0.7576,-5.2494 -1.9182,-13.0652 -2.5792,-17.3683 -0.9903,-6.4473 -0.9178,-10.8459 0.4118,-25 0.8874,-9.4469 1.8785,-21.2261 2.2023,-26.1761 0.3238,-4.95 1.2272,-14.175 2.0075,-20.5 0.7804,-6.325 1.8897,-18.25 2.4653,-26.5 0.5756,-8.25 1.7005,-19.95 2.4998,-26 0.7994,-6.05 1.9291,-17.75 2.5105,-26 0.5814,-8.25 1.7028,-19.95 2.4919,-26 0.7892,-6.05 1.9102,-17.75 2.4911,-26 0.5809,-8.25 1.9102,-21.975 2.9539,-30.5 1.0437,-8.525 2.1823,-19.775 2.5303,-25 0.348,-5.225 1.2517,-13.55 2.0084,-18.5 0.7566,-4.95 1.8696,-15.075 2.4734,-22.5 0.6037,-7.425 1.7481,-18.45 2.5432,-24.5 0.7951,-6.05 1.9121,-17.525 2.4823,-25.5 0.5701,-7.975 1.897,-21.7 2.9487,-30.5 1.0516,-8.8 2.1908,-20.275 2.5315,-25.5 0.3406,-5.225 1.4659,-16.475 2.5005,-25 1.0347,-8.525 2.1709,-20.225 2.525,-26 0.354,-5.775 1.2614,-15 2.0164,-20.5 0.755,-5.5 1.8612,-16.75 2.4583,-25 0.597,-8.25 1.9305,-21.075 2.9632,-28.5 1.0328,-7.425 2.1675,-18 2.5217,-23.5 0.3542,-5.5 1.273,-14.05 2.0417,-19 0.7688,-4.95 1.8921,-15.525 2.4962,-23.5 0.6042,-7.975 1.7339,-18.7858 2.5105,-24.024 0.7767,-5.2382 1.9036,-16.0382 2.5043,-24 0.6008,-7.9618 1.7245,-18.5337 2.4972,-23.4931 0.7728,-4.9594 1.8955,-14.4094 2.4949,-21 0.5994,-6.5906 1.9345,-17.6079 2.9668,-24.4829 1.0323,-6.875 2.1819,-15.9451 2.5545,-20.1558 0.648,-7.3215 0.5746,-7.7176 -1.681,-9.0731 -1.2973,-0.7796 -6.6337,-2.3842 -11.8587,-3.5659 -18.8888,-4.2718 -32.5885,-7.1439 -37,-7.757 -2.475,-0.3439 -6.75,-1.247 -9.5,-2.0069 -2.75,-0.7598 -9.275,-2.0619 -14.5,-2.8935 -5.225,-0.8316 -12.2,-2.1656 -15.5,-2.9644 -3.3,-0.7989 -10.05,-2.2217 -15,-3.1619 -15.984,-3.0359 -33.7441,-6.3556 -44.5,-8.3179 -5.775,-1.0536 -13.2,-2.5909 -16.5,-3.4163 -3.3,-0.8254 -8.7,-1.7994 -12,-2.1645 -3.3,-0.3651 -8.1351,-1.2821 -10.7446,-2.0378 -2.6095,-0.7557 -8.4595,-1.8952 -13,-2.5323 -4.5405,-0.637 -11.6027,-2.012 -15.6937,-3.0555 -4.0911,-1.0435 -8.7199,-1.8972 -10.2862,-1.8972 -1.5663,0 -7.8941,-1.0872 -14.0617,-2.4161 -14.4806,-3.1199 -32.6018,-6.5945 -40.2138,-7.7107 -3.3,-0.4839 -10.05,-1.7401 -15,-2.7915 -4.95,-1.0515 -11.7,-2.343 -15,-2.8701 -3.3,-0.5271 -9.6,-1.6645 -14,-2.5275 -13.4885,-2.6456 -24.5053,-4.7045 -35.8973,-6.7089 -5.9934,-1.0545 -12.2934,-2.3735 -14,-2.931 -1.7065,-0.5575 -6.7027,-1.4875 -11.1027,-2.0667 -4.4,-0.5791 -12.05,-1.9037 -17,-2.9435 -11.2033,-2.3534 -22.8987,-4.5944 -36.5,-6.9938 -5.775,-1.0187 -13.2,-2.5228 -16.5,-3.3423 -3.3,-0.8196 -8.025,-1.7705 -10.5,-2.1132 -4.5489,-0.6299 -18.0725,-3.4379 -30,-6.2292 -3.575,-0.8366 -12.8,-2.6168 -20.5,-3.956 -34.2465,-5.9562 -49.0017,-10.4919 -60.939,-18.7321 -14.1283,-9.7526 -24.7554,-25.9508 -28.0147,-42.7008 -1.7719,-9.106 -1.7799,-10.0923 -0.1794,-22 0.9216,-6.8566 1.9063,-14.4916 2.1883,-16.9666 0.282,-2.475 1.395,-8.55 2.4735,-13.5 1.0784,-4.95 2.6352,-12.375 3.4597,-16.5 4.6162,-23.0974 6.6923,-28.9561 14.2894,-40.3229 4.4574,-6.6692 16.5674,-18.6771 18.8359,-18.6771 0.6278,0 1.6582,-0.6227 2.2898,-1.3837 2.1412,-2.58 16.704,-7.6232 25.0259,-8.6667 10.0752,-1.2633 30.8197,0.1196 43.6534,2.9101 4.9044,1.0665 11.6172,2.2413 14.9172,2.6108 3.3,0.3694 8.475,1.2929 11.5,2.0521 3.025,0.7593 8.65,1.8465 12.5,2.4162 3.85,0.5696 11.5,1.9245 17,3.0107 12.9396,2.5557 25.5857,4.979 32.5,6.2278 3.025,0.5463 8.875,1.6763 13,2.5111 4.125,0.8348 13.125,2.5636 20,3.8418 14.6794,2.7293 20.486,3.862 36,7.0229 6.325,1.2886 13.75,2.624 16.5,2.9675 2.75,0.3435 7.25,1.2509 10,2.0166 2.75,0.7656 9.275,2.0737 14.5,2.9067 5.225,0.8331 11.075,1.9835 13,2.5564 1.925,0.573 6.65,1.4818 10.5,2.0197 3.85,0.5379 10.825,1.8477 15.5,2.9106 13.3068,3.0255 22.6272,4.94 34.1001,7.0043 5.83,1.049 12.355,2.3791 14.5,2.9558 2.1449,0.5767 7.2749,1.52 11.3999,2.0963 4.125,0.5762 11.775,1.9374 17,3.025 18.8143,3.916 30.6227,6.1404 37.4342,7.0517 3.8138,0.5103 10.7888,1.7953 15.5,2.8557 4.7112,1.0604 12.6158,2.6843 17.5658,3.6087 4.95,0.9244 14.625,2.7345 21.5,4.0224 6.875,1.288 16.325,3.0266 21,3.8636 4.675,0.837 13,2.4193 18.5,3.5162 12.0341,2.4 25.0156,4.8952 32.5,6.247 3.025,0.5463 8.875,1.6551 13,2.464 4.125,0.8089 11.1,2.1132 15.5,2.8986 4.4,0.7854 12.05,2.3004 17,3.3667 11.3363,2.4419 23.7738,4.8847 33.7313,6.6251 4.2522,0.7432 11.9022,2.2372 17,3.3199 5.0978,1.0828 11.7437,2.2643 14.7687,2.6255 3.025,0.3612 7.789,1.2929 10.5866,2.0703 2.7977,0.7774 8.4227,1.8718 12.5,2.432 4.0774,0.5603 11.2384,1.8861 15.9134,2.9462 7.6126,1.7264 13.4009,2.9014 42.5,8.6268 4.4,0.8658 12.725,2.413 18.5,3.4384 5.775,1.0254 13.875,2.5615 18,3.4136 12.2812,2.5368 23.0049,4.6202 31.5,6.1196 4.4,0.7766 12.5,2.3037 18,3.3935 5.5,1.0899 15.85,3.1244 23,4.5212 7.15,1.3968 16.6,3.2429 21,4.1024 4.4,0.8595 11.825,2.1934 16.5,2.9642 4.675,0.7709 13,2.2995 18.5,3.3971 5.5,1.0975 16.525,3.1706 24.5,4.6068 7.975,1.4361 17.875,3.2843 22,4.107 4.125,0.8226 11.1,2.1312 15.5,2.9078 4.4,0.7766 12.5,2.3253 18,3.4417 20.6411,4.1894 25.2762,5.0947 35.8973,7.0106 5.9934,1.0812 12.2934,2.422 14,2.9795 1.7065,0.5575 6.7027,1.5022 11.1027,2.0992 4.4,0.5971 11.3473,1.9539 15.4383,3.0153 4.0911,1.0613 8.5911,1.9375 10,1.9471 1.409,0.01 5.7117,0.7107 9.5617,1.5581 3.85,0.8474 11.5,2.4004 17,3.4511 5.5,1.0507 16.525,3.2864 24.5,4.9683 7.975,1.6819 19.225,3.9038 25,4.9376 5.775,1.0337 13.2,2.5501 16.5,3.3696 3.3,0.8196 8.025,1.7664 10.5,2.104 2.475,0.3376 8.55,1.4962 13.5,2.5745 4.95,1.0784 12.6,2.6321 17,3.4528 18.1319,3.3819 24.3436,4.8576 31,7.3646 3.85,1.4501 7.225,2.9281 7.5,3.2845 0.275,0.3563 1.487,0.9558 2.6933,1.3321 7.0426,2.1969 21.5066,16.918 27.4638,27.9522 8.74,16.1886 11.0168,31.5379 6.8429,46.1332 -1.1,3.8465 -2,8.2328 -2,9.7474 0,3.1729 -5.1576,30.4371 -7.9929,42.2526 -1.0559,4.4 -2.1817,9.6708 -2.5018,11.713 -0.6585,4.2007 -4.6131,13.3228 -8.3612,19.287 -3.2018,5.0947 -13.1793,15.5 -14.8628,15.5 -0.7047,0 -1.2813,0.6447 -1.2813,1.4326 0,0.7879 -1.0125,1.7412 -2.25,2.1183 -1.2375,0.3771 -2.925,1.2557 -3.75,1.9524 -3.4186,2.8871 -16.9568,7.6508 -24.8207,8.7338 -8.6276,1.1881 -28.7248,-0.077 -36.2782,-2.2837 -1.8706,-0.5465 -9.4761,-2.105 -16.9011,-3.4633 -17.4377,-3.1901 -22.3691,-4.1476 -34.5,-6.6987 -5.5,-1.1566 -12.7,-2.4802 -16,-2.9412 -3.3,-0.4611 -10.05,-1.7202 -15,-2.798 -14.8557,-3.2347 -29.4572,-6.0644 -39.1471,-7.5865 -5.0308,-0.7903 -10.2759,-1.8661 -11.6557,-2.3907 -1.3798,-0.5246 -6.2636,-1.4627 -10.853,-2.0846 -4.5893,-0.6219 -11.7192,-1.9701 -15.8442,-2.996 -4.125,-1.0259 -9.975,-2.1602 -13,-2.5207 -3.025,-0.3605 -8.8473,-1.5146 -12.9383,-2.5646 -4.0911,-1.05 -8.5911,-1.9169 -10,-1.9265 -1.409,-0.01 -5.7117,-0.7128 -9.5617,-1.5628 -3.85,-0.8499 -10.6,-2.1777 -15,-2.9506 -8.7191,-1.5315 -23.8572,-4.5487 -38.0217,-7.5781 -4.962,-1.0613 -12.612,-2.5544 -17,-3.3181 -4.3881,-0.7637 -12.4783,-2.3235 -17.9783,-3.4662 -5.5,-1.1428 -14.275,-2.9663 -19.5,-4.0524 -5.225,-1.0861 -11.525,-2.2568 -14,-2.6017 -2.475,-0.3448 -7.875,-1.4446 -12,-2.4441 -4.125,-0.9994 -10.1492,-2.1253 -13.3871,-2.5019 -3.2378,-0.3767 -7.9628,-1.3117 -10.5,-2.0779 -2.5371,-0.7662 -8.2129,-1.8667 -12.6129,-2.4456 -4.4,-0.5789 -12.05,-1.9046 -17,-2.9462 -11.1888,-2.3542 -23.148,-4.7171 -35.5,-7.0141 -15.2231,-2.8309 -30.9997,-6.0023 -37.8708,-7.6128 -3.504,-0.8212 -10.704,-2.156 -16,-2.9662 -5.2961,-0.8101 -11.0517,-1.7367 -12.7903,-2.0589 -4.6651,-0.8647 -6.1433,2.1843 -8.3879,17.3012 -1.0464,7.0476 -2.3341,14.2835 -2.8615,16.0797 -0.5275,1.7963 -1.4686,7.6463 -2.0914,13 -0.6228,5.3538 -1.765,12.5219 -2.5381,15.9293 -0.7732,3.4073 -1.8884,10.3823 -2.4784,15.5 -0.5899,5.1176 -1.7236,12.6798 -2.5192,16.8048 -0.7957,4.125 -2.1486,12.675 -3.0065,19 -0.8578,6.325 -1.9683,13.075 -2.4677,15 -0.4994,1.925 -1.4083,7.775 -2.0198,13 -0.6114,5.225 -1.7326,11.975 -2.4915,15 -0.7589,3.025 -1.8678,9.55 -2.4643,14.5 -0.5964,4.95 -1.9487,13.725 -3.005,19.5 -2.0506,11.2109 -4.1754,24.3292 -6.5598,40.5 -0.811,5.5 -2.3355,14.725 -3.3879,20.5 -1.0523,5.775 -2.1946,13.2 -2.5384,16.5 -0.3439,3.3 -1.475,10.5 -2.5138,16 -1.0387,5.5 -2.5716,14.725 -3.4064,20.5 -2.9937,20.7083 -4.6866,31.6728 -6.5623,42.5 -1.048,6.05 -2.1756,13.25 -2.5056,16 -0.33,2.75 -1.4649,9.95 -2.522,16 -2.1902,12.5355 -4.4236,26.4871 -6.5636,41 -0.811,5.5 -2.3355,14.725 -3.3879,20.5 -1.0523,5.775 -2.1975,13.2 -2.5448,16.5 -0.3473,3.3 -1.4916,10.725 -2.5428,16.5 -1.8711,10.279 -3.6109,21.436 -6.4714,41.5 -1.5643,10.9724 -4.3604,28.3985 -8.0227,50 -1.3055,7.7 -2.671,17.15 -3.0344,21 -0.3635,3.85 -1.2655,9.7 -2.0045,13 -0.7389,3.3 -1.8313,10.05 -2.4273,15 -0.5961,4.95 -1.9391,13.725 -2.9844,19.5 -3.4766,19.2068 -6.2582,36.3176 -7.5535,46.4648 -0.7046,5.5194 -1.9541,14.0852 -2.7766,19.0352 -0.8226,4.95 -2.0152,12.825 -2.6502,17.5 -1.7439,12.8383 -3.9421,20.719 -8.0891,29 -2.0657,4.125 -6.7467,14.25 -10.4023,22.5 -3.6555,8.25 -7.4762,16.8 -8.4903,19 -1.0141,2.2 -2.9735,6.7 -4.3542,10 -1.3807,3.3 -3.8563,9.15 -5.5014,13 -1.6451,3.85 -3.764,9.25 -4.7087,12 -3.2723,9.5256 -3.7506,10.5 -5.154,10.5 -0.7755,0 -1.6024,-0.5625 -1.8375,-1.25 z M 2950.5,3479.5084 c -4.95,-0.7037 -11.682,-2.0059 -14.9601,-2.8939 -3.2781,-0.888 -7.0192,-1.6145 -8.3136,-1.6145 -1.2945,0 -7.6124,-1.0783 -14.0399,-2.3962 -6.4275,-1.3179 -14.1614,-2.7088 -17.1864,-3.0909 -3.025,-0.382 -8.8473,-1.5538 -12.9383,-2.6038 -4.0911,-1.05 -8.8161,-1.9249 -10.5,-1.9442 -1.684,-0.019 -5.9867,-0.7098 -9.5617,-1.5344 -3.575,-0.8246 -11.225,-2.3455 -17,-3.3798 -5.775,-1.0344 -13.425,-2.5599 -17,-3.39 -8.0447,-1.8681 -20.6593,-4.2828 -32.5,-6.2213 -4.95,-0.8104 -12.825,-2.3386 -17.5,-3.396 -8.7018,-1.9682 -19.3361,-4.0474 -33.5,-6.5497 -4.4,-0.7773 -12.05,-2.3275 -17,-3.445 -17.6246,-3.9787 -32.0803,-6.88 -37.5,-7.5265 -3.025,-0.3609 -7.789,-1.2922 -10.5866,-2.0696 -2.7977,-0.7774 -8.4227,-1.8718 -12.5,-2.432 -4.0774,-0.5603 -11.2384,-1.8874 -15.9134,-2.9492 -4.675,-1.0618 -12.775,-2.6559 -18,-3.5424 -15.2224,-2.5829 -24.8089,-4.3271 -35.5,-6.4593 -15.1582,-3.023 -25.9623,-5.089 -37,-7.0753 -5.5,-0.9898 -12.765,-2.5184 -16.1443,-3.397 -3.3794,-0.8786 -7.3456,-1.5974 -8.8137,-1.5974 -1.4681,0 -7.9281,-1.0731 -14.3556,-2.3847 -6.4275,-1.3116 -13.9364,-2.6925 -16.6864,-3.0687 -2.75,-0.3763 -7.4963,-1.3168 -10.5474,-2.0902 -3.051,-0.7734 -8.901,-1.8631 -13,-2.4216 -4.0989,-0.5585 -11.7276,-1.8957 -16.9526,-2.9715 -11.157,-2.2971 -22.4616,-4.4497 -37,-7.0455 -5.775,-1.0311 -13.65,-2.5646 -17.5,-3.4079 -8.498,-1.8613 -20.4745,-4.1854 -34.452,-6.6855 -5.7485,-1.0283 -11.8235,-2.3486 -13.5,-2.9342 -1.6764,-0.5855 -6.198,-1.5056 -10.048,-2.0447 -6.7395,-0.9436 -14.3711,-2.4417 -38,-7.4594 -14.2152,-3.0187 -25.5619,-5.2544 -38,-7.4876 -5.5,-0.9874 -12.475,-2.4817 -15.5,-3.3205 -3.025,-0.8388 -8.1492,-1.8246 -11.3871,-2.1906 -3.2378,-0.3661 -7.9628,-1.2946 -10.5,-2.0635 -2.5371,-0.7689 -8.4379,-1.8913 -13.1129,-2.4943 -4.675,-0.6029 -10.975,-1.712 -14,-2.4645 -3.025,-0.7526 -10.0128,-2.0383 -15.5285,-2.8572 -5.5157,-0.819 -11.2305,-1.946 -12.6995,-2.5045 -1.469,-0.5585 -6.6201,-1.541 -11.4469,-2.1833 -4.8268,-0.6424 -10.4676,-1.7647 -12.5352,-2.4942 -2.0675,-0.7295 -7.4786,-1.8258 -12.0245,-2.4363 -4.546,-0.6105 -10.788,-1.7534 -13.8712,-2.5398 -3.0831,-0.7864 -9.1581,-1.9128 -13.5,-2.5031 -4.3418,-0.5903 -10.3905,-1.7085 -13.4416,-2.4849 -3.051,-0.7763 -8.901,-1.8806 -13,-2.454 -4.0989,-0.5733 -11.7276,-1.9169 -16.9526,-2.9857 -12.1291,-2.481 -30.7734,-5.938 -38.5,-7.1387 -3.3,-0.5128 -10.05,-1.7895 -15,-2.8373 -4.95,-1.0477 -11.925,-2.3314 -15.5,-2.8527 -3.575,-0.5213 -10.325,-1.7118 -15,-2.6455 -20.0567,-4.0056 -24.0398,-4.7691 -34,-6.5172 -5.775,-1.0135 -13.2,-2.5133 -16.5,-3.3328 -3.3,-0.8196 -8.025,-1.7676 -10.5,-2.1068 -2.475,-0.3391 -8.1,-1.4767 -12.5,-2.5279 -4.4,-1.0512 -13.85,-3.0656 -21,-4.4764 -12.7114,-2.5082 -19.7358,-3.9095 -38.0263,-7.5856 -30.785,-6.1875 -46.1508,-17.283 -57.4739,-41.5016 -2.6622,-5.694 -3.1583,-8.0956 -3.6757,-17.7911 -0.7403,-13.875 1.0623,-35.1097 3.6967,-43.5476 1.0886,-3.4865 1.9792,-7.436 1.9792,-8.7767 0,-6.8347 10.8901,-35.973 21.6335,-57.8842 7.1424,-14.5668 10.4116,-20.0206 23.0781,-38.5 10.0861,-14.7146 40.3609,-45.7681 53.0618,-54.4265 3.9746,-2.7096 7.2266,-5.5221 7.2266,-6.25 0,-0.8069 1.1832,-1.3235 3.0314,-1.3235 1.7306,0 3.271,-0.6244 3.5898,-1.4552 0.3071,-0.8004 3.1055,-2.9211 6.2186,-4.7127 3.1131,-1.7916 6.7852,-3.904 8.1602,-4.6941 5.5242,-3.1745 28.0348,-14.138 29.0285,-14.138 0.5847,0 3.1764,-1.125 5.7593,-2.5 2.583,-1.375 5.3749,-2.5028 6.2042,-2.5062 0.8294,0 2.8069,-0.6835 4.3944,-1.5114 6.8222,-3.5579 43.4874,-12.2252 56.3015,-13.3092 6.5414,-0.5533 11.0923,-1.4544 12.7148,-2.5175 4.7717,-3.1265 19.3838,-1.5775 50.0973,5.3109 4.95,1.1102 14.85,3.178 22,4.5952 7.15,1.4172 18.175,3.6349 24.5,4.9282 15.1777,3.1034 26.1778,5.2085 39.1879,7.4996 5.8783,1.0351 12.4033,2.3675 14.5,2.9607 2.0967,0.5932 6.9621,1.5298 10.8121,2.0814 3.85,0.5516 11.275,1.8749 16.5,2.9407 5.225,1.0658 15.35,3.0597 22.5,4.4309 7.15,1.3713 18.85,3.6141 26,4.9841 7.15,1.3701 15.475,2.7813 18.5,3.1361 3.025,0.3547 7.2014,1.5071 9.2808,2.5607 2.9834,1.5118 5.9112,1.9158 13.882,1.9158 8.2593,0 10.6748,0.3545 13.247,1.9443 1.9177,1.1852 6.6489,2.3754 12.1181,3.0485 4.9346,0.6074 11.4471,1.7357 14.4721,2.5073 3.025,0.7716 8.65,1.8887 12.5,2.4825 3.85,0.5937 11.275,1.9511 16.5,3.0163 10.2146,2.0825 23.1481,4.5796 32,6.1784 3.025,0.5463 8.875,1.6535 13,2.4603 4.125,0.8069 12.5448,2.306 18.7107,3.3314 6.1659,1.0254 11.6305,2.1238 12.1436,2.4409 0.5131,0.3172 6.0433,1.463 12.2893,2.5465 16.6535,2.8887 38.848,7.2398 61.8564,12.1266 5.775,1.2266 12.9075,2.577 15.85,3.0009 2.9425,0.4239 9.2425,1.6763 14,2.783 8.3581,1.9444 19.7157,4.2452 31.15,6.3104 3.025,0.5463 8.875,1.6705 13,2.4981 4.125,0.8276 9.75,1.9275 12.5,2.4442 6.441,1.2103 27.7117,5.3958 38,7.4774 4.4,0.8902 11.375,2.2286 15.5,2.9742 4.125,0.7455 12,2.2551 17.5,3.3545 12.6476,2.5281 24.6434,4.7682 35.5,6.6291 4.675,0.8013 13,2.3373 18.5,3.4134 13.6196,2.6646 25.0116,4.7885 37.5,6.9916 5.775,1.0187 13.2,2.5266 16.5,3.3508 3.3,0.8242 8.25,1.7985 11,2.1652 2.75,0.3667 8.375,1.4861 12.5,2.4876 4.125,1.0016 9.75,2.0985 12.5,2.4376 2.75,0.3392 9.275,1.4982 14.5,2.5757 11.191,2.3077 25.2677,5.012 29.5,5.6673 1.65,0.2554 3.9088,0.6476 5.0195,0.8714 1.1107,0.2239 4.9357,2.6704 8.5,5.4369 3.5643,2.7664 6.9305,5.0366 7.4805,5.0449 0.55,0.01 2.125,0.6158 3.5,1.3499 15.6734,8.3679 20.4819,11.0145 24.3104,13.3803 22.5127,13.9113 39.9482,29.5458 58.7312,52.6641 5.4107,6.6597 10.9899,13.2942 12.3981,14.7433 1.4227,1.4642 2.5603,3.7968 2.5603,5.25 0,1.642 0.5506,2.6152 1.4797,2.6152 0.8138,0 2.3936,1.6875 3.5106,3.75 1.1171,2.0625 3.7221,6.45 5.789,9.75 2.0668,3.3 6.3821,11.4 9.5895,18 3.2074,6.6 6.4616,13.274 7.2314,14.831 0.7699,1.5571 1.3998,3.2674 1.3998,3.8006 0,0.5333 1.288,4.4343 2.8621,8.669 6.0853,16.3699 11.8578,37.916 13.1188,48.9669 0.5481,4.8029 1.4377,12.1075 1.977,16.2325 1.241,9.4938 1.3155,34.7604 0.1239,42.0337 -0.4986,3.0435 -1.4126,10.9185 -2.0311,17.5 -0.6185,6.5814 -1.9611,14.8913 -2.9835,18.4663 -1.0224,3.575 -2.1603,8.2363 -2.5287,10.3584 -1.038,5.9794 -7.0942,19.2172 -12.4098,27.1258 -6.7685,10.0702 -19.026,21.105 -27.6287,24.8728 -2.2,0.9635 -5.1554,2.3793 -6.5676,3.1462 -6.372,3.4604 -25.7526,4.3762 -42.4324,2.0052 z M 2861,3055.3582 c -5.775,-0.7728 -12.525,-2.0475 -15,-2.8326 -2.475,-0.7852 -6.3,-1.695 -8.5,-2.0218 -4.2713,-0.6345 -21.0262,-4.0951 -39,-8.0552 -11.8628,-2.6137 -21.2796,-4.496 -37,-7.3959 -5.5,-1.0146 -12.7,-2.5197 -16,-3.3448 -3.3,-0.8251 -8.025,-1.7719 -10.5,-2.104 -2.475,-0.3321 -8.325,-1.4929 -13,-2.5796 -7.9199,-1.841 -17.8019,-3.8179 -31,-6.2016 -3.025,-0.5463 -8.875,-1.6777 -13,-2.5141 -9.6366,-1.954 -29.5683,-5.7554 -43.1001,-8.2201 -5.83,-1.0618 -12.58,-2.4646 -15,-3.1171 -2.4199,-0.6525 -8.5953,-1.7731 -13.7231,-2.4902 -5.4969,-0.7687 -10.0437,-1.9558 -11.0788,-2.8925 -1.3649,-1.2352 -4.0479,-1.5887 -12.0587,-1.5887 -8.4154,0 -10.8745,-0.3521 -13.4213,-1.9219 -1.769,-1.0904 -6.7956,-2.4157 -11.618,-3.0632 -4.675,-0.6277 -12.325,-1.9801 -17,-3.0054 -4.675,-1.0252 -12.325,-2.5904 -17,-3.478 -4.675,-0.8877 -14.35,-2.7443 -21.5,-4.1258 -7.15,-1.3815 -16.825,-3.158 -21.5,-3.9477 -4.675,-0.7896 -12.775,-2.328 -18,-3.4185 -9.4064,-1.9633 -20.0242,-3.94 -35.5,-6.6091 -4.4,-0.7589 -11.825,-2.2676 -16.5,-3.3528 -4.675,-1.0851 -15.925,-3.3796 -25,-5.0989 -9.075,-1.7193 -20.55,-3.9606 -25.5,-4.9807 -13.2729,-2.7351 -24.861,-4.9179 -35,-6.5928 -4.95,-0.8177 -11.7,-2.1472 -15,-2.9544 -3.3,-0.8072 -9.6,-1.9424 -14,-2.5225 -4.4,-0.5802 -10.475,-1.6796 -13.5,-2.4431 -3.025,-0.7635 -8.65,-1.8543 -12.5,-2.424 -3.85,-0.5696 -11.5,-1.9248 -17,-3.0115 -5.5,-1.0868 -14.05,-2.7323 -19,-3.6567 -4.95,-0.9245 -14.625,-2.7368 -21.5,-4.0273 -6.875,-1.2906 -17.225,-3.2173 -23,-4.2816 -5.775,-1.0643 -13.182,-2.6437 -16.4601,-3.5096 -3.2781,-0.866 -6.8222,-1.5745 -7.8758,-1.5745 -1.0536,0 -6.9216,-1.1005 -13.0399,-2.4455 -14.7603,-3.2448 -35.908,-7.2648 -42.1242,-8.0074 -14.0708,-1.681 -30.6518,-8.0133 -36.3343,-13.8761 -6.0899,-6.2833 -9.0912,-21.8191 -5.7565,-29.7989 0.775,-1.8546 2.3972,-4.6281 3.6049,-6.1632 2.3787,-3.0237 12.7636,-11.4415 19.9859,-16.2001 17.3174,-11.4102 32.9677,-24.6019 56.363,-47.5088 27.8256,-27.2446 49.8287,-51.7604 68.6591,-76.5 4.6049,-6.05 10.4213,-13.6907 12.9252,-16.9793 6.7468,-8.8611 7.7264,-10.2668 22.314,-32.0207 15.2571,-22.7524 20.571,-30.9291 26.833,-41.2888 2.4231,-4.0089 5.4148,-8.9589 6.6481,-11 1.2333,-2.0412 4.3061,-7.3112 6.8285,-11.7112 2.5225,-4.4 6.102,-10.475 7.9546,-13.5 1.8526,-3.025 4.0589,-6.85 4.9029,-8.5 0.844,-1.65 2.8825,-5.25 4.53,-8 1.6475,-2.75 3.9446,-6.8 5.1047,-9 1.1601,-2.2 3.4682,-6.475 5.1292,-9.5 4.327,-7.8802 28.6715,-56.4846 34.8105,-69.5 6.3555,-13.4743 7.8123,-16.6988 12.4237,-27.5 1.996,-4.675 4.5165,-10.1642 5.6012,-12.1981 1.0848,-2.034 1.9723,-4.1998 1.9723,-4.813 0,-0.6132 1.4002,-4.1241 3.1116,-7.8019 4.8439,-10.4098 6.4918,-14.1162 9.8643,-22.187 1.7236,-4.125 3.7558,-8.85 4.5158,-10.5 2.45,-5.3187 6.6198,-15.901 7.6837,-19.5 0.569,-1.925 1.6524,-4.625 2.4075,-6 1.2821,-2.3346 3.4968,-8.2897 7.066,-19 0.8248,-2.475 1.991,-5.4 2.5915,-6.5 0.6006,-1.1 1.8922,-4.475 2.8704,-7.5 0.9782,-3.025 3.1616,-9.325 4.8519,-14 1.6904,-4.675 6.033,-17.5 9.6503,-28.5 3.6174,-11 7.1584,-21.575 7.869,-23.5 0.7107,-1.925 2.7409,-8.225 4.5118,-14 1.7708,-5.775 4.0831,-13.0527 5.1385,-16.1727 2.1009,-6.2111 4.9259,-16.1977 7.8717,-27.8273 1.0448,-4.125 2.6266,-10.2 3.515,-13.5 0.8884,-3.3 2.68,-10.275 3.9813,-15.5 1.3014,-5.225 3.1153,-12.425 4.0308,-16 0.9156,-3.575 2.4877,-10.325 3.4935,-15 1.0059,-4.675 2.4632,-10.975 3.2385,-14 0.7753,-3.025 2.5909,-10.675 4.0347,-17 1.4438,-6.325 3.7628,-16.45 5.1534,-22.5 3.543,-15.4143 4.1012,-20.7966 2.3112,-22.2823 -1.5152,-1.2574 -12.0461,-3.3893 -37.7624,-7.6445 -26.6467,-4.4093 -34.1163,-5.6026 -47.2036,-7.541 -6.9869,-1.0349 -16.2119,-2.5604 -20.5,-3.3901 -4.288,-0.8296 -10.4964,-1.7952 -13.7964,-2.1456 -3.3,-0.3504 -8.8499,-1.2826 -12.333,-2.0716 -3.4832,-0.7891 -10.6832,-1.9084 -16,-2.4875 -5.3169,-0.5791 -13.942,-1.8871 -19.167,-2.9067 -5.225,-1.0196 -12.65,-2.151 -16.5,-2.5142 -3.85,-0.3633 -9.7,-1.2648 -13,-2.0036 -3.3,-0.7387 -10.5,-1.8561 -16,-2.483 -5.5,-0.627 -14.5,-1.9734 -20,-2.9919 -5.5,-1.0186 -12.925,-2.1626 -16.5,-2.5422 -3.575,-0.3796 -9.425,-1.2912 -13,-2.0257 -3.575,-0.7345 -11.824,-2.0332 -18.3311,-2.8861 -6.5071,-0.8528 -13.4821,-1.9877 -15.5,-2.522 -2.0179,-0.5343 -9.2939,-1.6617 -16.1689,-2.5054 -6.875,-0.8437 -13.9697,-1.9597 -15.7659,-2.4801 -1.7963,-0.5203 -7.6463,-1.4556 -13,-2.0784 -5.3538,-0.6228 -12.584,-1.7794 -16.0671,-2.5701 -3.4832,-0.7908 -10.6832,-1.9191 -16,-2.5076 -5.3169,-0.5884 -12.7471,-1.7139 -16.5117,-2.5013 -3.7645,-0.7873 -11.1895,-1.8942 -16.5,-2.4599 -5.3104,-0.5657 -13.0303,-1.6853 -17.1553,-2.488 -4.125,-0.8027 -12.9,-2.1543 -19.5,-3.0035 -6.6,-0.8492 -13.6128,-1.974 -15.584,-2.4997 -1.9711,-0.5256 -8.2711,-1.4197 -14,-1.9869 -5.7288,-0.5672 -14.466,-1.8847 -19.416,-2.9278 -4.95,-1.0432 -12.5875,-2.3915 -16.9721,-2.9962 -5.071,-0.6994 -8.2733,-1.6377 -8.7997,-2.5783 -0.6381,-1.1402 -2.9633,-1.4788 -10.1554,-1.4788 -6.9278,0 -9.6375,-0.373 -10.5311,-1.4498 -0.6618,-0.7973 -4.6544,-2.1766 -8.8724,-3.065 -14.3121,-3.0145 -18.973,-6.627 -17.892,-13.8675 0.256,-1.7147 0.084,-4.1302 -0.3812,-5.3677 -1.0201,-2.711 -5.1676,-2.9501 -14.3961,-0.8298 -3.3,0.7582 -10.95,2.5152 -17,3.9044 -11.7662,2.7018 -18.3013,4.4165 -31,8.1336 -18.1239,5.3051 -26.2243,7.4672 -30.263,8.0777 -2.7068,0.4091 -4.6362,1.3415 -5.2852,2.5542 -0.843,1.5752 -2.1465,1.9099 -7.4373,1.9099 -4.7589,0 -6.6394,0.4008 -7.2839,1.5524 -0.4778,0.8539 -3.9877,2.3892 -7.7997,3.4118 -3.812,1.0226 -9.1809,2.6332 -11.9309,3.579 -22.2364,7.6478 -46.6877,15.7598 -49.9606,16.575 -2.1784,0.5426 -4.4284,1.3543 -5,1.8038 -0.5717,0.4496 -2.8394,1.3522 -5.0394,2.0059 -2.2,0.6536 -6.025,2.0265 -8.5,3.0507 -2.475,1.0242 -6.525,2.5334 -9,3.3537 -2.475,0.8203 -7.425,2.6109 -11,3.9792 -13.4224,5.1371 -23.6821,8.8753 -29.3084,10.6787 -3.1946,1.024 -6.3446,2.2792 -7,2.7894 -0.6554,0.5102 -2.9916,1.4068 -5.1916,1.9926 -3.6323,0.9672 -13.1425,4.5981 -19.5,7.4449 -2.4396,1.0925 -4.6411,1.9585 -18,7.0807 -9.9508,3.8155 -23.5057,9.5141 -31.5,13.2429 -5.9242,2.7632 -16.0716,6.6332 -19.8152,7.5571 -2.0984,0.5179 -4.7984,1.5542 -6,2.3029 -3.8421,2.3941 -7.7062,2.8153 -10.2907,1.1219 -1.3168,-0.8628 -2.3941,-2.2846 -2.3941,-3.1595 0,-0.8749 -0.8472,-3.2271 -1.8826,-5.2269 -1.0354,-1.9999 -3.3315,-8.3612 -5.1025,-14.1362 -1.7709,-5.775 -4.35,-13.0216 -5.7312,-16.1035 -3.6962,-8.2472 -2.4493,-10.3407 8.58,-14.4056 2,-0.7371 7.4613,-2.9835 12.1363,-4.9919 4.675,-2.0084 10.75,-4.4782 13.5,-5.4885 4.8044,-1.765 10.7149,-4.0142 25.25,-9.6084 3.7125,-1.4289 9.225,-3.4611 12.25,-4.516 3.025,-1.0549 6.3528,-2.4054 7.3951,-3.0011 1.7984,-1.0279 4.0156,-1.8688 18.1049,-6.8667 3.3,-1.1706 6.6174,-3.0036 7.372,-4.0733 1.0287,-1.4585 2.5534,-1.945 6.095,-1.945 3.4071,0 5.213,-0.5414 6.4817,-1.9433 0.9673,-1.0688 3.1745,-2.238 4.905,-2.598 1.7305,-0.3601 4.9463,-1.4738 7.1463,-2.4749 2.2,-1.0011 6.025,-2.4924 8.5,-3.3139 2.475,-0.8215 7.65,-2.7144 11.5,-4.2065 3.85,-1.492 9.9859,-3.7457 13.6354,-5.0081 3.6495,-1.2624 7.4745,-2.7413 8.5,-3.2864 2.1557,-1.1459 12.7509,-4.7792 19.4949,-6.6851 2.5467,-0.7198 5.9372,-1.9845 7.5346,-2.8105 1.5973,-0.826 4.6887,-1.8256 6.8697,-2.2212 2.1809,-0.3957 5.3154,-1.4051 6.9654,-2.2432 1.65,-0.8381 5.925,-2.3132 9.5,-3.2781 3.575,-0.9649 8.75,-2.4932 11.5,-3.3963 2.75,-0.9031 8.6,-2.6989 13,-3.9907 4.4,-1.2918 12.05,-3.5485 17,-5.0148 14.7826,-4.3792 24.7582,-7.2516 29,-8.3505 2.2,-0.5699 6.7,-1.7782 10,-2.6852 18.8437,-5.1787 26.9138,-7.2945 38.5,-10.0936 3.575,-0.8637 8.975,-2.41 12,-3.4362 3.025,-1.0262 8.4788,-2.3371 12.1196,-2.913 3.6408,-0.576 8.5349,-1.723 10.8758,-2.5489 2.3408,-0.8259 5.437,-1.5033 6.8803,-1.5053 4.6526,-0.01 8.9423,-3.4394 9.6206,-7.6986 0.3326,-2.0887 1.2104,-6.3997 1.9507,-9.5798 2.2647,-9.7297 5.8174,-9.1346 -49.9233,-8.3628 -26.4131,0.3658 -53.1987,1.098 -59.5237,1.6271 -6.325,0.5292 -24.325,1.6543 -40,2.5002 -15.675,0.8459 -31.7618,1.9788 -35.7484,2.5175 -3.9866,0.5387 -17.2616,1.675 -29.5,2.5249 -12.2384,0.85 -27.6516,2.1909 -34.2516,2.9798 -6.6,0.7889 -18.75,1.9203 -27,2.5142 -8.25,0.594 -19.05,1.7005 -24,2.4589 -4.95,0.7585 -15.3,1.8987 -23,2.5338 -7.7,0.6351 -16.25,1.5777 -19,2.0947 -2.75,0.5169 -12.425,1.5912 -21.5,2.3873 -17.0132,1.4924 -40.9879,4.4134 -58.5,7.1274 -5.5,0.8524 -13.825,1.9831 -18.5,2.5126 -4.675,0.5295 -13.675,1.851 -20,2.9365 -6.325,1.0855 -15.1,2.4159 -19.5,2.9564 -4.4,0.5404 -10.3664,1.6693 -13.2588,2.5086 -8.6816,2.5192 -10.2875,0.4666 -12.1548,-15.535 -0.5455,-4.675 -1.4966,-12.8945 -2.1134,-18.2655 -0.6168,-5.371 -1.5043,-11.1003 -1.9722,-12.7318 -1.6901,-5.8928 4.4661,-8.7024 24.2511,-11.068 5.0864,-0.6082 12.1731,-1.7028 15.7481,-2.4324 3.575,-0.7295 10.1,-1.6293 14.5,-1.9995 4.4,-0.3702 13.625,-1.5104 20.5,-2.5338 6.875,-1.0234 17.9,-2.3464 24.5,-2.94 6.6,-0.5936 15.825,-1.7149 20.5,-2.4919 4.675,-0.777 12.55,-1.6909 17.5,-2.0308 4.95,-0.3399 15.525,-1.4745 23.5,-2.5214 7.975,-1.0469 20.8,-2.3899 28.5,-2.9845 7.7,-0.5946 18.725,-1.719 24.5,-2.4988 5.775,-0.7798 18.15,-1.8975 27.5,-2.4838 9.35,-0.5863 22.4,-1.7108 29,-2.4989 6.6,-0.788 19.875,-1.9118 29.5,-2.4973 9.625,-0.5854 22.9,-1.7227 29.5,-2.5273 16.2369,-1.9793 67.777,-5.294 108,-6.9458 31.3088,-1.2857 40.3157,-2.254 36.0811,-3.879 -0.957,-0.3672 -7.4417,-1.3685 -14.4105,-2.225 -6.9688,-0.8565 -14.5202,-1.9698 -16.7809,-2.4738 -2.2607,-0.5041 -9.4607,-1.403 -16,-1.9975 -6.5393,-0.5945 -17.0647,-1.927 -23.3897,-2.961 -6.325,-1.0341 -14.65,-2.1739 -18.5,-2.5329 -3.85,-0.3589 -10.0801,-1.2914 -13.8447,-2.0721 -3.7645,-0.7808 -11.1895,-1.8826 -16.5,-2.4485 -5.3104,-0.566 -15.0553,-1.8841 -21.6553,-2.9293 -6.6,-1.0451 -15.6,-2.1818 -20,-2.526 -4.4,-0.3442 -11.825,-1.2572 -16.5,-2.029 -4.675,-0.7718 -15.2631,-2.0701 -23.5291,-2.8851 -8.2661,-0.815 -17.0411,-1.9274 -19.5,-2.4719 -2.459,-0.5446 -10.0959,-1.4888 -16.9709,-2.0982 -6.875,-0.6094 -16.6408,-1.7603 -21.7018,-2.5576 -5.061,-0.7972 -18.4992,-2.1267 -29.8626,-2.9544 -11.3634,-0.8276 -23.4225,-1.9443 -26.7981,-2.4815 -3.3756,-0.5372 -13.7875,-1.4518 -23.1375,-2.0324 -9.35,-0.5805 -23.3,-1.7077 -31,-2.5049 -7.7,-0.7972 -23,-1.9177 -34,-2.4902 -11,-0.5725 -27.5592,-1.7062 -36.7983,-2.5195 -9.2391,-0.8133 -19.9562,-1.4787 -23.8158,-1.4787 -3.8595,0 -7.942,-0.4948 -9.0721,-1.0996 -1.9116,-1.0231 -2.0052,-1.6673 -1.3446,-9.25 0.3905,-4.4827 1.5684,-13.3254 2.6175,-19.6504 1.0492,-6.325 1.9089,-14.0015 1.9104,-17.0589 0,-9.3718 0.01,-9.3739 19.2183,-8.5866 9.0787,0.3721 25.6818,1.5356 36.8957,2.5856 11.2139,1.05 25.5639,2.1958 31.8889,2.5463 6.325,0.3505 17.575,1.272 25,2.0478 7.425,0.7758 21.15,1.9031 30.5,2.505 9.35,0.602 21.5427,1.7186 27.0949,2.4814 5.5522,0.7629 16.1272,1.8815 23.5,2.486 7.3728,0.6045 17.4551,1.7324 22.4051,2.5065 4.95,0.7741 15.3,1.8862 23,2.4715 7.7,0.5852 18.275,1.7132 23.5,2.5065 5.225,0.7934 15.35,1.9068 22.5,2.4741 7.15,0.5674 19.3,1.9487 27,3.0696 7.7,1.1209 21.875,3.1576 31.5,4.5261 9.625,1.3685 24.7,3.5868 33.5,4.9296 8.8,1.3429 18.7,2.7339 22,3.0913 3.3,0.3573 10.05,1.5036 15,2.5473 4.95,1.0437 13.4036,2.1856 18.7857,2.5375 5.3821,0.3519 10.0212,1.0209 10.309,1.4866 0.2878,0.4658 1.9593,0.7996 3.7143,0.7419 l 3.191,-0.1048 -3.7436,-1.1635 c -2.0589,-0.6398 -4.4228,-2.1332 -5.2531,-3.3186 -0.8302,-1.1853 -3.1956,-2.6592 -5.2564,-3.2754 -2.0608,-0.6161 -5.5469,-1.9723 -7.7469,-3.0138 -7.8888,-3.7347 -13.0693,-5.9671 -17.2855,-7.4491 -2.357,-0.8284 -5.2697,-2.1956 -6.4725,-3.0381 -1.2029,-0.8425 -2.8388,-1.5318 -3.6355,-1.5318 -0.7966,0 -4.409,-1.3882 -8.0275,-3.0849 -7.7831,-3.6496 -14.5349,-6.7763 -22.079,-10.2248 -3.025,-1.3828 -8.65,-3.9626 -12.5,-5.7329 -3.85,-1.7703 -10.825,-4.975 -15.5,-7.1217 -4.675,-2.1467 -13,-6.093 -18.5,-8.7696 -5.5,-2.6766 -15.4,-7.4186 -22,-10.5377 -6.6,-3.1192 -12.675,-6.0901 -13.5,-6.6022 -0.825,-0.512 -2.625,-1.4093 -4,-1.9939 -3.7032,-1.5744 -45.2533,-21.9065 -47,-22.9989 -0.825,-0.516 -2.625,-1.4178 -4,-2.004 -2.9038,-1.2379 -24.6633,-11.6151 -27.25,-12.9955 -0.9625,-0.5136 -2.5375,-1.3475 -3.5,-1.8531 -0.9625,-0.5055 -18.625,-9.2998 -39.25,-19.5427 -52.0418,-25.8455 -53.4386,-26.6056 -53.8193,-29.2864 -0.1757,-1.2365 0.5524,-3.4865 1.6178,-5 1.0654,-1.5134 3.8354,-6.3517 6.1557,-10.7517 2.3202,-4.4 4.5681,-8.45 4.9953,-9 0.4272,-0.55 2.6813,-4.6 5.009,-9 4.4629,-8.4362 6.6925,-11.5 8.3689,-11.5 0.5596,0 37.9524,18.3963 83.0951,40.8807 45.1426,22.4843 87.4775,43.4254 94.0775,46.5357 6.6,3.1103 14.25,6.7332 17,8.0507 2.75,1.3176 7.025,3.28 9.5,4.3609 11.1358,4.8633 34.7356,15.5105 37,16.6928 1.375,0.7179 7.45,3.6089 13.5,6.4243 6.05,2.8154 13.25,6.1987 16,7.5183 5.3736,2.5787 9.7238,4.4981 21.5,9.4868 4.125,1.7474 9.6377,4.2735 12.2505,5.6135 2.6128,1.3399 5.2832,2.4363 5.9343,2.4363 0.6511,0 3.0133,0.8745 5.2495,1.9434 2.2361,1.0689 6.6446,2.898 9.7967,4.0647 3.152,1.1668 5.9911,2.5422 6.309,3.0566 0.3179,0.5144 1.3094,0.9353 2.2033,0.9353 0.8939,0 3.4548,0.8719 5.691,1.9375 3.8488,1.8342 7.6296,3.3785 19.8157,8.0941 2.8875,1.1173 6.15,2.4416 7.25,2.9428 4.4716,2.0373 15.2649,6.2749 19.2722,7.5664 2.3497,0.7573 5.2624,2.0704 6.4725,2.9181 1.2102,0.8476 3.1193,1.5411 4.2426,1.5411 1.1233,0 3.7215,0.9 5.7739,2 4.0519,2.1717 7.7388,2.6233 7.7388,0.948 0,-0.5786 -1.3203,-1.5123 -2.934,-2.0748 -1.6137,-0.5626 -3.6491,-2.1142 -4.5231,-3.448 -0.8739,-1.3339 -2.4441,-2.4252 -3.4892,-2.4252 -1.0451,0 -3.1723,-1.0634 -4.727,-2.3632 -1.5547,-1.2997 -3.9517,-2.7029 -5.3267,-3.1182 -1.375,-0.4154 -3.175,-1.309 -4,-1.986 -0.825,-0.6769 -4.875,-3.1229 -9,-5.4356 -4.125,-2.3126 -9.975,-5.7582 -13,-7.6569 -3.025,-1.8987 -6.85,-4.1444 -8.5,-4.9906 -1.65,-0.8461 -5.0908,-2.7559 -7.6463,-4.2439 -2.5554,-1.4881 -6.8304,-3.9592 -9.5,-5.4914 -2.6695,-1.5322 -6.6537,-3.8648 -8.8537,-5.1836 -2.2,-1.3187 -5.6051,-3.2947 -7.5669,-4.3911 -1.9618,-1.0963 -4.1544,-2.7012 -4.8724,-3.5664 -0.7181,-0.8652 -1.7115,-1.5731 -2.2075,-1.5731 -0.4961,0 -3.4785,-1.8112 -6.6276,-4.0249 -3.1491,-2.2138 -7.9756,-5.5104 -10.7256,-7.3259 -2.75,-1.8155 -6.297,-4.1667 -7.8823,-5.225 -1.5852,-1.0583 -3.615,-2.3742 -4.5106,-2.9242 -2.1849,-1.3418 -24.5404,-16.4237 -29.7716,-20.0851 -2.2906,-1.6032 -10.2717,-7.4149 -17.7358,-12.9149 -7.4642,-5.5 -15.1097,-11.125 -16.99,-12.5 -3.9237,-2.8693 -34.452,-26.0037 -45.6097,-34.563 -4.125,-3.1644 -9.975,-7.8212 -13,-10.3484 -3.025,-2.5272 -7.525,-6.145 -10,-8.0394 -10.0666,-7.7054 -68.3912,-56.5542 -82,-68.678 -4.675,-4.1648 -11.9316,-10.5646 -16.1257,-14.2218 -15.9805,-13.9345 -41.1248,-36.2653 -60.3748,-53.619 -11.0003,-9.9167 -24.7253,-22.1295 -30.5,-27.1395 C 1511.1393,1398.1013 1504,1390.6954 1504,1388.682 c 0,-0.7494 5.9625,-7.2321 13.25,-14.4059 7.2875,-7.1738 15.5179,-15.5706 18.2898,-18.6597 2.7719,-3.089 5.5767,-5.6164 6.2328,-5.6164 1.2216,0 11.4728,9.1731 44.7833,40.0735 34.1841,31.7108 44.6803,41.2606 65.9441,59.9978 19.7772,17.4272 57.2403,49.5855 68.067,58.4287 34.0657,27.8245 47.8685,38.9132 65.9516,52.983 11.492,8.9415 16.3528,12.6385 19.087,14.517 1.2007,0.825 6.7853,4.875 12.4102,9 31.491,23.0939 60.6688,42.7889 81.4842,55.0019 4.95,2.9043 10.575,6.2795 12.5,7.5003 2.7455,1.7413 19.7346,12.1738 40,24.5629 0.825,0.5044 3.525,2.0589 6,3.4545 2.475,1.3956 6.525,3.7125 9,5.1487 2.475,1.4362 8.1,4.4836 12.5,6.7719 4.4,2.2884 9.5568,5.1355 11.4596,6.3268 1.9028,1.1914 4.7153,2.442 6.25,2.779 1.5347,0.3371 2.7904,1.2011 2.7904,1.92 0,1.3104 5.5146,2.6435 7.6242,1.8431 0.6184,-0.2346 2.8589,-2.9876 4.979,-6.1178 10.5283,-15.5442 30.3758,-36.0771 38.7894,-40.129 l 4.1074,-1.9781 10.5,2.8769 c 9.7358,2.6675 16.6595,4.7477 28,8.4126 2.475,0.7998 9.225,2.8901 15,4.6451 15.9671,4.8524 22.9674,7.0755 29,9.2096 3.025,1.0702 7.75,2.5419 10.5,3.2705 2.75,0.7286 7.25,2.0459 10,2.9272 2.75,0.8814 8.825,2.7783 13.5,4.2154 4.675,1.4371 11.65,3.6436 15.5,4.9034 3.85,1.2598 11.725,3.7267 17.5,5.4821 5.775,1.7554 12.3,3.8627 14.5,4.683 2.2,0.8202 6.925,2.3028 10.5,3.2947 3.575,0.9918 10.325,3.0113 15,4.4877 4.675,1.4764 11.425,3.4978 15,4.4919 3.575,0.9941 8.525,2.5172 11,3.3847 2.475,0.8675 9.225,2.9836 15,4.7026 5.775,1.719 12.975,3.9348 16,4.924 3.025,0.9893 9.55,3.0157 14.5,4.5032 4.95,1.4875 11.7,3.5912 15,4.6749 3.3,1.0838 8.25,2.5591 11,3.2786 2.75,0.7194 7.025,2.0118 9.5,2.8719 2.475,0.8601 8.55,2.7682 13.5,4.2403 4.95,1.472 12.375,3.7287 16.5,5.0148 11.3135,3.5272 22.4936,6.9201 32.5,9.8631 4.95,1.4559 12.375,3.7045 16.5,4.9971 4.125,1.2925 12.45,3.7832 18.5,5.5349 6.05,1.7517 13.25,4.023 16,5.0474 6.3027,2.3478 16.1512,4.3118 17.4856,3.4871 2.0032,-1.238 0.9378,-3.6811 -3.6223,-8.3061 -6.6762,-6.7713 -17.8584,-20.2256 -25.9333,-31.2028 -7.6548,-10.4062 -18.43,-26.3775 -18.43,-27.3176 0,-0.3265 -1.0125,-2.0893 -2.25,-3.9173 -3.5727,-5.2776 -19.9263,-38.7361 -23.102,-47.2651 -0.8191,-2.2 -2.702,-7.15 -4.1843,-11 -1.4822,-3.85 -3.5501,-9.475 -4.5953,-12.5 -1.0452,-3.025 -2.3168,-6.2393 -2.8259,-7.1428 -1.3184,-2.3401 -5.9406,-20.6617 -8.0369,-31.8572 -0.9784,-5.225 -2.2939,-11.4001 -2.9233,-13.7224 -1.589,-5.8623 -4.065,-39.9961 -4.0824,-56.2776 -0.028,-25.9896 3.0233,-53.005 8.6395,-76.5 0.7888,-3.3 2.2595,-9.6 3.2683,-14 1.0087,-4.4 2.3857,-9.35 3.0599,-11 0.6742,-1.65 1.8049,-5.025 2.5126,-7.5 1.3063,-4.5686 5.6379,-16.4125 9.3259,-25.5 4.9477,-12.1918 7.4845,-18.071 8.1981,-19 0.4225,-0.55 2.6956,-4.825 5.0514,-9.5 2.3558,-4.675 5.9242,-11.2222 7.9299,-14.5494 2.0056,-3.3271 3.9184,-6.7577 4.2506,-7.6236 0.3323,-0.8658 2.6651,-4.5845 5.184,-8.2638 2.5189,-3.6793 4.5799,-6.9101 4.5799,-7.1796 0,-0.9055 11.2468,-15.7939 19.5526,-25.8836 4.5276,-5.5 16.718,-18.3498 27.0897,-28.5551 24.5191,-24.1257 37.3075,-34.3751 60.3577,-48.374 11.4889,-6.9775 23.8034,-13.3681 39,-20.239 3.025,-1.3677 7.3,-3.3516 9.5,-4.4085 2.2,-1.057 6.025,-2.6418 8.5,-3.5217 2.475,-0.88 8.1,-2.9301 12.5,-4.5558 4.4,-1.6257 10.9867,-3.7731 14.6372,-4.7721 3.6505,-0.999 7.1019,-2.1035 7.6698,-2.4545 0.9774,-0.6041 10.0536,-2.7157 25.693,-5.9776 27.5378,-5.7435 32.0519,-6.1337 71,-6.1378 33.9431,0 38.1567,0.1867 51,2.3036 24.7367,4.0771 57.3483,11.9942 64.3763,15.6285 1.6634,0.8602 3.8342,1.5681 4.824,1.5731 0.9899,0.01 4.0497,1.116 6.7997,2.4688 2.75,1.3527 5.4222,2.4736 5.9383,2.4908 2.4257,0.081 30.4215,13.5281 39.5617,19.0026 0.825,0.4942 4.425,2.6111 8,4.7043 22.1548,12.972 42.0758,28.448 61.8825,48.0744 8.4645,8.3875 15.7787,15.25 16.2537,15.25 0.4751,0 0.8638,1.125 0.8638,2.5 0,1.3808 0.5803,2.5 1.2962,2.5 1.8791,0 20.8778,23.2218 30.1367,36.8358 6.7563,9.934 25.0524,44.0034 28.3948,52.874 0.5782,1.5346 2.8475,7.1801 5.0429,12.5456 3.5888,8.7709 6.1741,16.5751 11.6754,35.2446 3.7127,12.5998 7.6548,32.5036 10.4329,52.6761 3.1203,22.6579 2.8862,58.9692 -0.5401,83.7787 -1.4087,10.1998 -3.3986,21.6952 -4.4222,25.5452 -1.0235,3.85 -2.1425,8.8 -2.4866,11 -0.3442,2.2 -1.4993,6.7 -2.567,10 -1.0676,3.3 -3.503,10.95 -5.4119,17 -4.3401,13.7552 -7.7208,23.0619 -9.8808,27.2003 -0.9186,1.7602 -1.6703,3.7011 -1.6703,4.313 0,2.7412 -12.2473,27.0284 -20.9993,41.6433 -1.9247,3.2139 -3.6868,6.2934 -3.9159,6.8434 -1.7991,4.3188 -25.4679,36.7161 -31.3136,42.8612 -2.0742,2.1804 -3.7712,4.3978 -3.7712,4.9275 0,2.6822 -40.9839,41.2531 -51,47.9973 -1.375,0.9258 -5.875,4.1423 -10,7.1476 -4.125,3.0054 -10.998,7.6248 -15.2734,10.2654 -4.2754,2.6405 -9.6754,6.0176 -12,7.5046 -5.1897,3.3197 -37.2769,19.3313 -40.7266,20.3227 -1.375,0.3952 -2.9913,1.1094 -3.5917,1.5872 -1.8611,1.4808 -15.8335,6.0689 -34.307,11.2653 -2.9693,0.8353 -5.8416,1.9615 -6.3828,2.5027 -2.0445,2.0445 0.175,3.9159 5.4604,4.604 2.9266,0.381 8.4711,1.5163 12.3211,2.5228 3.85,1.0065 11.5,2.9624 17,4.3464 5.5,1.3839 13.825,3.4889 18.5,4.6778 4.675,1.1888 10.975,2.7392 14,3.4454 3.025,0.7062 9.325,2.2563 14,3.4446 41.1351,10.4565 53.5289,13.4909 65.5,16.0365 4.4,0.9356 9.7231,2.2743 11.8291,2.9747 2.1059,0.7005 7.7309,2.1478 12.5,3.2164 17.9265,4.0165 25.002,5.7291 36.6709,8.8758 6.6,1.7798 15.6,4.0197 20,4.9777 4.4,0.9579 10.7,2.4499 14,3.3155 3.3,0.8656 11.175,2.7855 17.5,4.2665 6.325,1.4809 15.55,3.7129 20.5,4.9599 17.5725,4.4269 27.0645,6.6554 32,7.513 2.75,0.4778 8.375,1.7663 12.5,2.8633 4.125,1.0969 12.225,3.1158 18,4.4864 5.775,1.3705 13.425,3.2251 17,4.1212 3.575,0.8961 10.325,2.4866 15,3.5344 4.675,1.0478 9.4755,2.3356 10.6677,2.8617 1.1923,0.5262 5.0173,1.4592 8.5,2.0734 3.4828,0.6142 9.0323,1.9437 12.3323,2.9545 6.5547,2.0077 15.1399,4.1031 28.9302,7.0611 4.9116,1.0535 10.2773,2.3851 11.9238,2.9591 1.6465,0.5739 5.9297,1.5126 9.5183,2.0859 3.5885,0.5732 9.2477,1.8839 12.5761,2.9126 3.3284,1.0287 7.8516,2.1674 10.0516,2.5304 6.7705,1.1171 16.1092,6.1067 17.2921,9.239 5.6639,14.9972 9.1366,30.9408 10.7991,49.5801 0.6009,6.7368 1.0296,8.0391 3.0914,9.39 2.1514,1.4097 13.3954,1.5076 111.1055,0.9679 59.7916,-0.3303 120.8954,-1.0591 135.7862,-1.6195 14.8909,-0.5604 58.9909,-1.7026 98,-2.5383 39.0092,-0.8357 88.4757,-2.2082 109.9257,-3.0501 62.9469,-2.4703 111.6077,-3.3458 114.5,-2.06 l 2.5,1.1115 0.691,25.9884 c 0.5348,20.1129 0.4103,26.2744 -0.5503,27.2531 -0.9539,0.9717 -15.4746,1.4786 -62.6989,2.1885 -33.8016,0.5081 -62.129,1.1696 -62.9497,1.47 -0.8206,0.3005 -25.1171,1.005 -53.9921,1.5657 -28.875,0.5608 -64.425,1.4713 -79,2.0235 -14.575,0.5522 -39.55,1.4928 -55.5,2.0903 -15.95,0.5975 -79.3306,1.2219 -140.8457,1.3876 -72.1756,0.1944 -112.1974,0.6529 -112.8371,1.2926 -1.7501,1.7501 0.8157,2.3449 16.1677,3.7479 8.1964,0.7491 16.7056,1.8474 18.9093,2.4408 2.2036,0.5934 10.6886,1.7204 18.8555,2.5045 8.1668,0.784 16.8517,1.8742 19.2996,2.4225 2.4479,0.5482 9.6257,1.4875 15.9507,2.0872 6.325,0.5996 14.425,1.7205 18,2.4907 3.575,0.7702 11.225,1.8895 17,2.4874 5.775,0.5978 16.125,1.9384 23,2.9792 6.875,1.0407 15.875,2.1776 20,2.5265 4.125,0.3488 12.225,1.4841 18,2.5229 5.775,1.0388 13.65,2.1732 17.5,2.521 3.85,0.3477 9.475,1.2545 12.5,2.0151 3.025,0.7606 9.775,1.8914 15,2.5128 5.225,0.6214 12.4624,1.7443 16.0831,2.4954 3.6206,0.7511 10.5956,1.839 15.5,2.4175 12.8649,1.5178 57.119,8.4933 79.9169,12.5969 7.15,1.287 16.15,2.6285 20,2.9811 3.85,0.3526 9.925,1.2403 13.5,1.9726 3.575,0.7323 11,1.8485 16.5,2.4805 5.5,0.6319 12.7551,1.774 16.1224,2.5379 3.3674,0.7638 10.1174,1.8668 15,2.4509 4.8827,0.5841 12.7026,1.9139 17.3776,2.9551 4.675,1.0412 11.2,2.19 14.5,2.553 3.3,0.363 8.5226,1.2985 11.6058,2.0789 3.0831,0.7804 9.1581,1.9019 13.5,2.4922 4.3418,0.5903 10.4168,1.7153 13.5,2.5 3.0831,0.7847 9.1581,1.9097 13.5,2.5 4.3418,0.5903 10.3905,1.7085 13.4416,2.4849 3.051,0.7763 8.901,1.877 13,2.4459 11.6222,1.613 25.7813,5.1045 27.0888,6.68 1.2668,1.5264 -0.6008,13.9807 -3.7993,25.3359 -0.8521,3.025 -2.1481,9.4697 -2.88,14.3215 -0.7319,4.8518 -1.8642,9.4643 -2.5162,10.25 -1.4911,1.7966 -4.7027,1.8065 -12.9407,0.04 -9.5514,-2.0486 -33.8034,-6.5461 -39,-7.2327 -2.475,-0.3269 -6.75,-1.2068 -9.5,-1.9553 -2.75,-0.7484 -8.15,-1.8388 -12,-2.423 -3.85,-0.5843 -11.275,-1.9307 -16.5,-2.992 -13.8959,-2.8225 -64.4733,-11.5495 -72.5,-12.5097 -2.75,-0.329 -9.05,-1.4318 -14,-2.4507 -4.95,-1.0189 -12.15,-2.1618 -16,-2.5399 -3.85,-0.378 -9.7,-1.3023 -13,-2.054 -3.3,-0.7517 -10.275,-1.86 -15.5,-2.4631 -5.225,-0.603 -14.45,-1.9437 -20.5,-2.9794 -6.05,-1.0356 -14.375,-2.1805 -18.5,-2.5441 -4.125,-0.3637 -10.5036,-1.2793 -14.1746,-2.0347 -3.6711,-0.7553 -10.8711,-1.8752 -16,-2.4886 -5.129,-0.6133 -12.329,-1.7383 -16,-2.5 -3.6711,-0.7616 -10.8711,-1.8745 -16,-2.4731 -5.129,-0.5986 -13.8254,-1.9202 -19.3254,-2.937 -5.5,-1.0168 -13.825,-2.1469 -18.5,-2.5113 -4.675,-0.3645 -12.325,-1.2982 -17,-2.075 -4.675,-0.7768 -14.125,-1.878 -21,-2.4471 -6.875,-0.5691 -16.775,-1.6859 -22,-2.4816 -5.225,-0.7957 -16.8224,-2.1383 -25.772,-2.9835 -8.9496,-0.8453 -18.1746,-1.962 -20.5,-2.4816 -2.3254,-0.5197 -11.2679,-1.647 -19.8723,-2.5051 -8.6044,-0.8582 -18.0544,-2.094 -21,-2.7462 -7.9963,-1.7704 -19.3557,-1.6824 -19.3557,0.1501 0,0.8223 2.0084,2.1711 4.6294,3.1088 2.5462,0.9109 5.6838,2.3948 6.9725,3.2974 1.2887,0.9027 3.0009,1.6412 3.8049,1.6412 0.804,0 3.2913,0.8719 5.5275,1.9375 4.5395,2.1633 12.5232,5.3734 20.0657,8.0679 2.75,0.9824 6.35,2.5054 8,3.3843 1.65,0.8789 3.3746,1.6008 3.8324,1.6041 0.4578,0 4.0578,1.3703 8,3.0374 7.141,3.02 8.2315,3.5019 18.6676,8.248 3.025,1.3758 9.325,4.1451 14,6.1542 4.675,2.0091 10.3,4.5065 12.5,5.5499 2.2,1.0433 7.15,3.3311 11,5.0838 15.3857,7.0046 18.3602,8.3756 27.5,12.6755 10.1626,4.7811 41.2538,19.9674 73,35.6563 17.6981,8.7464 26.8009,13.4906 44.5,23.1922 3.3,1.8089 10.05,5.39 15,7.9582 4.95,2.5681 9.4892,5.0644 10.0872,5.5473 0.5979,0.4829 4.6479,2.7465 9,5.0303 10.3248,5.418 16.938,8.999 22.0985,11.9663 2.3021,1.3238 8.55,4.8818 13.8842,7.9068 5.3342,3.025 11.5962,6.625 13.9155,8 2.3193,1.375 7.9965,4.6608 12.6158,7.3018 4.6193,2.6411 10.1988,5.8936 12.3988,7.228 2.2,1.3344 7.6,4.4899 12,7.0124 4.4,2.5224 10.475,6.1162 13.5,7.9863 3.025,1.87 6.4,3.8559 7.5,4.413 1.1,0.5572 4.3559,2.4857 7.2354,4.2858 2.8794,1.8 8.5044,5.2584 12.5,7.6854 3.9955,2.427 11.5396,7.1906 16.7646,10.5859 12.1271,7.8803 17.8552,11.5465 21.0429,13.4683 17.3552,10.4631 23.391,15.0616 23.7513,18.0951 0.3138,2.642 -5.3332,10.6653 -17.552,24.938 -3.5314,4.125 -7.2861,9.1803 -8.3437,11.234 -2.5584,4.9682 -5.852,5.7928 -10.1586,2.5435 -1.782,-1.3444 -6.1649,-4.1231 -9.7399,-6.1748 -3.575,-2.0517 -8.525,-5.0302 -11,-6.6187 -2.475,-1.5886 -8.1,-4.9703 -12.5,-7.5148 -4.4,-2.5445 -10.475,-6.1421 -13.5,-7.9947 -3.025,-1.8526 -6.85,-4.0686 -8.5,-4.9245 -1.65,-0.8558 -5.025,-2.874 -7.5,-4.4848 -5.6772,-3.6949 -14.7341,-9.1272 -18,-10.7962 -1.375,-0.7026 -4.525,-2.5949 -7,-4.2051 -5.7368,-3.7321 -15.1986,-9.4431 -16.5,-9.9591 -0.55,-0.218 -3.025,-1.7594 -5.5,-3.4253 -2.475,-1.6659 -5.7193,-3.8503 -7.2095,-4.8542 -1.4902,-1.0039 -2.9076,-1.8253 -3.1496,-1.8253 -0.2421,0 -3.2978,-1.811 -6.7905,-4.0244 -3.4927,-2.2134 -8.1504,-4.9272 -10.3504,-6.0306 -2.2,-1.1034 -6.8577,-3.7925 -10.3504,-5.9756 -3.4927,-2.1832 -6.553,-3.9694 -6.8005,-3.9694 -0.2476,0 -6.9024,-3.6 -14.7884,-8 -7.886,-4.4 -14.6904,-8 -15.1207,-8 -0.4304,0 -1.493,-0.6152 -2.3613,-1.3672 -1.8094,-1.567 -12.3539,-7.3129 -41.5787,-22.6572 -7.7,-4.0429 -18.5,-9.741 -24,-12.6625 -5.5,-2.9216 -11.575,-6.0282 -13.5,-6.9038 -1.925,-0.8755 -8.225,-3.8518 -14,-6.614 -10.2642,-4.9094 -14.0715,-6.6703 -24.75,-11.4469 -2.8875,-1.2916 -7.6125,-3.4467 -10.5,-4.7891 -10.508,-4.8851 -16.6416,-7.5593 -17.3382,-7.5593 -0.3916,0 -3.2319,-1.1738 -6.3119,-2.6085 -3.0799,-1.4347 -7.8499,-3.6337 -10.5999,-4.8866 -2.75,-1.253 -10.2262,-4.8042 -16.6138,-7.8915 -6.3876,-3.0874 -11.9771,-5.6134 -12.4212,-5.6134 -0.4442,0 -1.5982,-0.7156 -2.5647,-1.5902 -0.9664,-0.8746 -3.6952,-2.0257 -6.064,-2.5579 -2.3687,-0.5322 -5.0725,-1.6607 -6.0085,-2.5078 -0.936,-0.847 -2.1875,-1.2398 -2.7811,-0.873 -1.518,0.9382 -0.2946,2.5289 1.9449,2.5289 1.0305,0 2.1646,0.9169 2.5203,2.0375 0.3557,1.1206 2.2985,3.144 4.3174,4.4964 2.0189,1.3524 5.2457,3.5871 7.1707,4.9661 1.925,1.379 5.075,3.629 7,5 1.925,1.371 4.9236,3.5069 6.6635,4.7464 1.7399,1.2395 6.4649,4.8308 10.5,7.9806 4.0351,3.1499 10.0365,7.7965 13.3365,10.3259 3.3,2.5293 10.725,8.3848 16.5,13.0121 5.775,4.6273 17.7,14.0454 26.5,20.9291 43.391,33.9422 81.7495,65.4549 109.4767,89.9382 7.5165,6.6373 20.3842,17.908 28.5949,25.0462 8.2106,7.1381 20.7792,18.3881 27.9302,25 7.151,6.6118 15.026,13.7691 17.5,15.905 9.2869,8.0179 18.9982,17.8125 18.9982,19.1612 0,1.9083 -35.5591,37.4553 -37.468,37.4553 -0.8392,0 -7.5398,-5.5125 -14.8902,-12.25 -56.7328,-52.0022 -72.0356,-65.6001 -101.1418,-89.8741 -28.9616,-24.1533 -40.8195,-33.807 -79.4137,-64.6516 -4.6276,-3.6984 -9.4207,-7.3993 -10.6513,-8.2243 -2.3687,-1.5879 -17.0454,-12.7421 -25.7482,-19.5684 -2.8528,-2.2376 -9.0118,-6.7013 -13.6868,-9.9193 -4.675,-3.2181 -9.7065,-6.7873 -11.1811,-7.9316 -1.4746,-1.1444 -4.1746,-3.1236 -6,-4.3982 -5.0751,-3.5439 -17.5199,-12.4806 -25.3189,-18.1817 -14.3002,-10.4536 -25.9491,-18.5875 -42.9655,-30.0008 -6.0421,-4.0526 -23.662,-15.474 -42.9559,-27.8446 -2.7068,-1.7354 -5.4496,-3.1554 -6.0951,-3.1554 -0.6454,0 -1.988,-0.9 -2.9835,-2 -2.1365,-2.3608 -7.3031,-2.6767 -8.1392,-0.4978 -1.285,3.3487 1.2426,7.1188 12.919,19.27 12.3652,12.868 56.6758,61.2505 67.0648,73.2278 27.959,32.2332 74.1482,93.6046 91.1554,121.1177 0.55,0.8898 1.8596,2.9148 2.9101,4.5 1.0506,1.5853 2.9631,4.5698 4.25,6.6323 4.4731,7.1688 7.3537,11.7719 9.6998,15.5 2.1346,3.3919 5.4845,8.9137 8.1401,13.4178 0.55,0.9328 3.9143,6.5642 7.4763,12.5141 23.2234,38.7925 43.646,76.7725 66.3103,123.3181 12.7003,26.0826 15.7134,32.4835 15.7134,33.3812 0,0.3785 2.025,4.257 4.5,8.6188 2.475,4.3618 4.5,8.6074 4.5,9.4345 0,1.6071 -2.553,2.9201 -24.5,12.6007 -7.7,3.3964 -15.8296,7.0279 -18.0657,8.07 -2.2362,1.0421 -5.0165,1.8948 -6.1786,1.8948 -2.4426,0 -5.2557,-2.4714 -5.2557,-4.6172 0,-0.8109 -1.125,-3.5877 -2.5,-6.1706 -1.375,-2.583 -2.5,-5.2857 -2.5,-6.0061 0,-0.7204 -0.8989,-2.974 -1.9975,-5.008 -1.0987,-2.0339 -2.6647,-5.2731 -3.4799,-7.1981 -0.8153,-1.925 -1.9101,-4.175 -2.4329,-5 -0.5227,-0.825 -9.5596,-18.825 -20.0819,-40 -20.653,-41.5619 -27.1801,-54.1215 -36.6379,-70.5 -1.2704,-2.2 -3.2885,-5.8 -4.4847,-8 -4.8735,-8.9636 -14.9,-25.1697 -22.8915,-37 -1.4861,-2.2 -2.8802,-4.4554 -3.0979,-5.012 -0.2177,-0.5566 -4.6708,-7.5342 -9.8958,-15.5058 -5.225,-7.9715 -9.95,-15.2304 -10.5,-16.1308 -3.3754,-5.5256 -22.0533,-32.8776 -27.8963,-40.8514 -18.5549,-25.3214 -18.4857,-25.235 -48.1037,-59.9832 -17.316,-20.3153 -30.4545,-34.9353 -48.1176,-53.5436 -25.002,-26.3398 -26.486,-27.4119 -30.0678,-21.7232 -3.8148,6.0587 -18.5793,23.3167 -24.9975,29.2191 -3.7494,3.4482 -8.7345,7.2077 -11.0779,8.3546 -3.8384,1.8786 -4.7306,1.9622 -9,0.8435 -2.6066,-0.6831 -6.9892,-2.2875 -9.7392,-3.5655 -4.7979,-2.2298 -21.5147,-10.1034 -32,-15.0721 -2.75,-1.3032 -10.4,-4.9126 -17,-8.0209 -6.6,-3.1083 -12.675,-6.0722 -13.5,-6.5865 -0.825,-0.5142 -2.175,-1.1999 -3,-1.5238 -0.825,-0.3239 -4.425,-1.9305 -8,-3.5702 -3.575,-1.6396 -8.975,-4.1013 -12,-5.4703 -7.6113,-3.4446 -14.684,-6.6766 -20,-9.1395 -12.7771,-5.9195 -17.9825,-8.2184 -18.6084,-8.2184 -0.3805,0 -2.9867,-1.0829 -5.7917,-2.4065 -2.8049,-1.3235 -8.4749,-3.8232 -12.5999,-5.5549 -4.125,-1.7316 -8.85,-3.7587 -10.5,-4.5047 -2.8486,-1.2879 -8.2948,-3.6234 -24.75,-10.6138 -3.9875,-1.6939 -8.825,-3.8891 -10.75,-4.8781 -1.925,-0.9891 -5.3,-2.3668 -7.5,-3.0616 -2.2,-0.6948 -4.3599,-1.8746 -4.7997,-2.6218 -0.4398,-0.7472 -1.7235,-1.3586 -2.8526,-1.3586 -1.1291,0 -4.1443,-1.0876 -6.7003,-2.4169 -2.5561,-1.3293 -8.0224,-3.8592 -12.1474,-5.622 -4.125,-1.7628 -9.8586,-4.2832 -12.7414,-5.6008 -2.8827,-1.3176 -7.8327,-3.5407 -11,-4.9402 -3.1672,-1.3995 -7.4228,-3.4165 -9.4567,-4.4823 -2.034,-1.0658 -4.2544,-1.9378 -4.9343,-1.9378 -0.6799,0 -3.0657,-0.8719 -5.3019,-1.9375 -2.2361,-1.0656 -6.4282,-2.8656 -9.3157,-4 -13.1785,-5.1772 -15.7093,-6.2708 -17.6367,-7.6208 -1.1321,-0.7929 -2.763,-1.4417 -3.6244,-1.4417 -0.8613,0 -3.3119,-0.8901 -5.4457,-1.978 -2.1338,-1.0879 -5.4915,-2.498 -7.4614,-3.1337 -1.97,-0.6356 -4.9318,-1.8602 -6.5818,-2.7213 -2.9481,-1.5385 -7.9341,-3.5044 -18.1635,-7.1615 -2.8398,-1.0153 -6.2148,-2.5127 -7.5,-3.3276 -1.2851,-0.8149 -3.9115,-1.8027 -5.8365,-2.1952 -1.925,-0.3925 -3.9604,-1.0821 -4.5231,-1.5323 -0.5628,-0.4503 -4.1628,-2.0074 -8,-3.4603 -10.4855,-3.97 -18.4113,-7.0367 -23.9769,-9.2771 -2.75,-1.107 -7.475,-3.0039 -10.5,-4.2154 -3.025,-1.2115 -6.774,-2.8316 -8.331,-3.6002 -4.0811,-2.0144 -6.5823,-1.7331 -7.5805,0.8526 -1.3246,3.4312 -4.9125,20.3297 -6.1042,28.75 -0.5837,4.125 -1.4755,9.075 -1.9817,11 -0.5061,1.925 -1.4136,8.675 -2.0166,15 -0.6029,6.325 -1.7362,15.325 -2.5184,20 -0.7822,4.675 -2.0912,16.15 -2.909,25.5 -0.8177,9.35 -1.9494,20.2484 -2.5147,24.2188 -0.5653,3.9703 -1.7091,20.3953 -2.5418,36.5 -0.8328,16.1046 -1.9611,37.3812 -2.5075,47.2812 -1.2343,22.3633 -1.2362,81.9507 0,106 3.8339,74.798 5.3486,94.3201 10.0861,130 1.0954,8.25 2.4036,19.95 2.907,26 0.5035,6.05 1.5875,14.6 2.4091,19 0.8215,4.4 1.7706,10.7 2.1091,14 0.3385,3.3 1.4845,10.5 2.5466,16 1.0621,5.5 2.5842,13.825 3.3826,18.5 2.5377,14.8605 8.0861,41.3149 11.2207,53.5 0.849,3.3 2.3772,9.825 3.3961,14.5 3.8561,17.6924 6.5125,27.8371 12.4378,47.5 1.3259,4.4 2.7013,9.4928 3.0565,11.3174 0.3552,1.8245 1.2756,4.5245 2.0454,6 0.7698,1.4754 1.4024,3.2842 1.4057,4.0196 0.012,2.667 14.2606,41.4732 19.0567,51.9021 1.0722,2.3315 1.9495,4.7452 1.9495,5.3638 0,0.6187 0.854,2.7611 1.8977,4.7609 1.0438,1.9999 3.1256,6.3362 4.6263,9.6362 11.4166,25.1052 31.08,62.578 38.1693,72.7397 1.8187,2.6069 3.3067,5.172 3.3067,5.7004 0,0.5283 0.5625,1.3204 1.25,1.7602 0.6875,0.4398 2.0872,2.3747 3.1104,4.2997 1.0232,1.925 3.195,5.975 4.8262,9 2.7361,5.0739 2.9405,6.1585 2.6396,14 -0.3075,8.013 -0.5554,8.8413 -4.3262,14.4573 -5.1552,7.6776 -11.8061,12.4264 -19.8096,14.144 -7.2128,1.5478 -6.2144,1.5602 -19.6904,-0.2431 z"
       id="path216" />
  </g>
</svg>
